<svg width="172" height="158" viewBox="0 0 172 158" fill="none" xmlns="http://www.w3.org/2000/svg">
<g clip-path="url(#clip0_1_19075)">
<path d="M28.4102 145.689V157.689H85.6502H142.89V145.689H85.6502H28.4102Z" fill="#FFF2EA"/>
<path d="M74.9 29.83H81.83V37.11H85.65H89.46V29.83H96.4V22.55H103.34V13.87H96.4V6.94H89.46V0H85.65H81.83V6.94H74.9V13.87H67.96V22.55H74.9V29.83Z" fill="#EFC930"/>
<path d="M132.1 49.2207V61.6607H124.82L124.83 79.6507H119.55L119.53 91.8707L115.89 91.9207L113.25 91.8707L113.26 79.6507H107.97V61.6607H103.56V61.3707H103.5V49.2207H99.69H85.65H71.61H67.8V61.3707H67.73V61.6607H63.33V79.6507H58.04V91.8707L56.4 91.9207L51.76 91.8707L51.75 79.6507H46.46L46.48 61.6607H39.19V49.2207H0V61.3707H6.94V79.7307H13.87V98.0907H21.16V116.751H28.44V134.231H29.99H76.71V122.401V116.751H82.3H82.99H85.65H88.3H89H94.59V122.401V134.231H141.3H142.86V116.751H150.14V98.0907H157.42V79.7307H164.36V61.3707H171.3V49.2207H132.1Z" fill="#FFF2EA"/>
</g>
<defs>
<clipPath id="clip0_1_19075">
<rect width="171.3" height="157.69" fill="white"/>
</clipPath>
</defs>
</svg>
